<?xml version="1.0" encoding="utf-8"?>
<!-- Generator: Adobe Illustrator 19.0.0, SVG Export Plug-In . SVG Version: 6.00 Build 0)  -->
<svg version="1.1" id="Layer_1" xmlns="http://www.w3.org/2000/svg" xmlns:xlink="http://www.w3.org/1999/xlink" x="0px" y="0px"
	 viewBox="320 -60 1280 600" style="enable-background:new 320 -60 1280 600;" xml:space="preserve">
<style type="text/css">
	.st0{fill:#FFFFFF;}
</style>
<g id="Layer_2">
	<g id="XMLID_1_">
		<path id="XMLID_235_" class="st0" d="M102.7,325.4c15.2-1.4,24.7-4.4,28.5-9s5.7-15.1,5.7-31.6V111.5c0-13.9-2.1-23.1-6.3-27.5
			s-13.5-7.2-27.8-8.4v-7.4h105.5c33.9,0,59.8,6.6,77.7,19.7c18,13.2,27,30.5,27,52c0,27.2-10,46.9-29.9,59.2
			c-19.9,12.2-44.9,18.4-74.8,18.4c-4.3,0-9.8-0.1-16.5-0.3c-6.7-0.2-11.7-0.3-14.9-0.3v72.7c0,15,2.3,24.5,6.9,28.4
			c4.6,3.9,14.9,6.4,31,7.6v7.4H102.9v-7.6H102.7z M237.6,90.4c-11.3-4.9-25.7-7.4-43-7.4c-8.2,0-13.3,0.8-15.1,2.4
			c-1.9,1.6-2.8,5.2-2.8,10.8v104.3c7.2,0.7,11.8,1,14.1,1.2c2.2,0.1,4.4,0.2,6.4,0.2c18.4,0,32.8-2.6,43.4-7.8
			c19.1-9.5,28.7-27.3,28.7-53.3C269.3,116.3,258.7,99.5,237.6,90.4z"/>
		<path id="XMLID_238_" class="st0" d="M320.4,326.3c12-1,19.9-3.2,23.8-6.3c3.9-3.2,5.9-10,5.9-20.4v-88.1
			c0-12.9-1.2-22.1-3.6-27.6s-6.8-8.3-13.2-8.3c-1.3,0-3,0.2-5.2,0.5c-2.1,0.3-4.4,0.8-6.7,1.3V171c7.4-2.6,15-5.3,22.8-8
			c7.8-2.7,13.2-4.7,16.2-5.9c6.5-2.5,13.2-5.3,20.1-8.4c0.9,0,1.5,0.3,1.7,1c0.2,0.7,0.3,2,0.3,4.1v32
			c8.4-11.6,16.4-20.6,24.2-27.1c7.8-6.5,15.8-9.8,24.2-9.8c6.7,0,12.1,2,16.3,6c4.2,4,6.3,9,6.3,14.9c0,5.3-1.6,9.8-4.8,13.5
			c-3.2,3.6-7.2,5.5-12,5.5c-5,0-9.9-2.3-14.9-6.8c-5-4.6-9-6.8-11.8-6.8c-4.6,0-10.2,3.7-16.8,11c-6.6,7.4-10,14.9-10,22.8v88.1
			c0,11.2,2.6,19,7.8,23.3c5.2,4.4,13.9,6.4,26,6.2v6.4h-96.6V326.3z"/>
		<path id="XMLID_240_" class="st0" d="M486.8,176.4c16.5-17.9,37.7-26.9,63.6-26.9c25.8,0,47.1,8.5,64.1,25.4
			c16.9,16.9,25.4,39.5,25.4,67.6c0,25.9-8.2,48.4-24.6,67.6s-37.6,28.7-63.7,28.7c-25,0-46.2-9.2-63.5-27.5
			c-17.3-18.4-26-41.4-26-69.1C462.1,216.2,470.3,194.3,486.8,176.4z M517.9,171.4c-13,11.9-19.6,32.3-19.6,61.3
			c0,23.2,5.2,44.8,15.8,64.8c10.5,20.1,25.1,30.1,43.7,30.1c14.6,0,25.9-6.7,33.8-20.1s11.8-31,11.8-52.7c0-22.5-5-43.8-15.1-63.7
			c-10-19.9-24.6-29.9-43.6-29.9C534.4,161.3,525.5,164.7,517.9,171.4z"/>
		<path id="XMLID_243_" class="st0" d="M793.4,161.1c11.8,8.4,17.7,17.6,17.7,27.5c0,4.3-1.5,8.3-4.5,12s-7.6,5.5-13.9,5.5
			c-4.6,0-8.6-1.6-12-4.7c-3.5-3.1-6-7.7-7.5-13.7l-2.3-9.4c-1.7-6.9-4.6-11.8-8.8-14.6c-4.3-2.7-10-4.1-17-4.1
			c-14.8,0-27.4,6.5-37.6,19.5c-10.2,13-15.3,30.2-15.3,51.7c0,19.7,5.6,37.4,16.9,53s26.5,23.5,45.6,23.5
			c13.5,0,25.6-4.4,36.1-13.3c6-5.1,12.8-13.2,20.3-24.3l5.5,3.3c-7.4,15.6-15.2,28-23.4,37.1c-15.8,17.5-34,26.2-54.7,26.2
			c-20.3,0-38.3-8-53.9-24s-23.4-37.8-23.4-65.2c0-27,8.5-50.1,25.6-69.5s38.6-29.1,64.6-29.1C767.6,148.6,781.6,152.8,793.4,161.1z
			"/>
		<path id="XMLID_245_" class="st0" d="M969.3,168.6c13.8,12.7,20.7,30.7,20.7,54H866c1.3,30.1,8.1,52.1,20.5,65.9
			s27,20.7,43.9,20.7c13.7,0,25.2-3.6,34.6-10.7c9.4-7.1,18-17.3,26-30.4l6.8,2.3c-5.3,16.6-15.3,31.9-30,46
			c-14.6,14.1-32.6,21.1-53.8,21.1c-24.5,0-43.4-9.2-56.7-27.7s-20-39.8-20-63.9c0-26.2,7.7-48.8,23.2-67.8s35.7-28.5,60.5-28.5
			C939.4,149.6,955.5,155.9,969.3,168.6z M875.7,183.6c-4.2,7-7.2,15.9-9,26.6h82.4c-1.4-13-3.9-22.7-7.4-29.1
			c-6.4-11.5-17.1-17.2-32-17.2C894.9,163.8,883.5,170.4,875.7,183.6z"/>
		<path id="XMLID_248_" class="st0" d="M1027.9,271.2h6.4c3,14.8,7,26.2,12.1,34.2c9.1,14.6,22.4,21.9,39.9,21.9
			c9.7,0,17.4-2.7,23.1-8.1c5.7-5.4,8.5-12.4,8.5-21c0-5.5-1.6-10.7-4.9-15.8c-3.3-5.1-9-10-17.2-14.8L1074,255
			c-16-8.6-27.8-17.3-35.4-26s-11.3-19-11.3-30.9c0-14.6,5.2-26.6,15.6-35.9c10.4-9.4,23.5-14.1,39.3-14.1c6.9,0,14.5,1.3,22.8,3.9
			c8.3,2.6,12.9,3.9,14,3.9c2.3,0,4-0.3,5.1-1c1-0.6,2-1.7,2.7-3.1h4.7l1.4,54.5h-6.1c-2.6-12.6-6.1-22.5-10.5-29.5
			c-8.1-13-19.7-19.5-35-19.5c-9.1,0-16.3,2.8-21.5,8.4c-5.2,5.6-7.8,12.2-7.8,19.7c0,12,9,22.7,27,32l25.8,13.9
			c27.7,15.1,41.6,32.7,41.6,52.7c0,15.4-5.8,27.9-17.3,37.7c-11.5,9.8-26.6,14.6-45.1,14.6c-7.8,0-16.6-1.3-26.5-3.9
			s-15.7-3.9-17.5-3.9c-1.6,0-2.9,0.6-4.1,1.7c-1.2,1.1-2.1,2.4-2.7,4h-5.1v-63H1027.9z"/>
		<path id="XMLID_250_" class="st0" d="M1183.5,271.2h6.4c3,14.8,7,26.2,12.1,34.2c9.1,14.6,22.4,21.9,39.9,21.9
			c9.7,0,17.4-2.7,23.1-8.1s8.5-12.4,8.5-21c0-5.5-1.6-10.7-4.9-15.8c-3.3-5.1-9-10-17.2-14.8l-21.8-12.6c-16-8.6-27.8-17.3-35.4-26
			c-7.6-8.7-11.3-19-11.3-30.9c0-14.6,5.2-26.6,15.6-35.9c10.4-9.4,23.5-14.1,39.3-14.1c6.9,0,14.5,1.3,22.8,3.9
			c8.3,2.6,12.9,3.9,14,3.9c2.3,0,4-0.3,5.1-1c1-0.6,2-1.7,2.7-3.1h4.7l1.4,54.5h-6.1c-2.6-12.6-6.1-22.5-10.5-29.5
			c-8.1-13-19.7-19.5-35-19.5c-9.1,0-16.3,2.8-21.5,8.4c-5.2,5.6-7.8,12.2-7.8,19.7c0,12,9,22.7,27,32l25.8,13.9
			c27.7,15.1,41.6,32.7,41.6,52.7c0,15.4-5.8,27.9-17.3,37.7c-11.5,9.8-26.6,14.6-45.1,14.6c-7.8,0-16.6-1.3-26.5-3.9
			s-15.7-3.9-17.5-3.9c-1.6,0-2.9,0.6-4.1,1.7s-2.1,2.4-2.7,4h-5.1v-63H1183.5z"/>
		<path id="XMLID_252_" class="st0" d="M1326.1,327.3c13.9-1.3,22.7-3.7,26.4-7.1c3.6-3.4,5.5-12.8,5.5-28V199
			c0-8.5-0.6-14.3-1.8-17.6c-2-5.3-6.1-8-12.3-8c-1.4,0-2.8,0.1-4.2,0.4c-1.4,0.3-5.3,1.3-11.8,3.1v-6.1l8.4-2.7
			c22.8-7.4,38.7-13,47.7-16.8c3.6-1.6,6-2.3,7-2.3c0.3,0.9,0.4,1.9,0.4,2.9v140.2c0,14.8,1.8,24.2,5.4,27.9
			c3.6,3.8,11.7,6.2,24.3,7.2v5.5h-94.9v-5.4H1326.1z M1357.2,66.1c3.9-4,8.7-6,14.5-6c5.6,0,10.4,2,14.4,5.9c4,4,6,8.8,6,14.5
			c0,5.6-2,10.3-6,14.3s-8.8,5.9-14.4,5.9c-5.7,0-10.5-2-14.5-5.9c-3.9-4-5.9-8.7-5.9-14.3S1353.3,70.2,1357.2,66.1z"/>
		<path id="XMLID_255_" class="st0" d="M1436.7,327.3c9.2-1.2,15.7-3.5,19.4-6.9c3.7-3.4,5.6-11.2,5.6-23.1V198
			c0-8.3-0.8-14.1-2.3-17.4c-2.5-4.9-7.6-7.4-15.2-7.4c-1.2,0-2.4,0.1-3.6,0.2c-1.2,0.1-2.8,0.3-4.6,0.6v-6.8
			c5.3-1.6,18-5.6,37.9-12.1l18.4-6.1c0.9,0,1.5,0.3,1.7,1s0.3,1.6,0.3,2.7v28.7c12-11.2,21.3-18.9,28.1-23
			c10.1-6.4,20.7-9.6,31.6-9.6c8.8,0,16.9,2.5,24.2,7.6c14,9.9,21.1,27.5,21.1,52.9v91.2c0,9.4,1.9,16.1,5.6,20.3
			c3.7,4.2,10,6.3,18.8,6.4v5.5H1540v-5.5c9.5-1.3,16.1-3.9,19.9-7.9s5.7-12.6,5.7-25.9V210c0-11.2-2.1-20.5-6.2-27.8
			c-4.1-7.4-11.8-11-22.9-11c-7.6,0-15.4,2.6-23.3,7.8c-4.4,3-10.1,7.9-17.1,14.8v109.4c0,9.4,2.1,15.7,6.2,18.8
			c4.2,3.2,10.7,4.9,19.7,5.2v5.5h-85.4v-5.4H1436.7z"/>
		<path id="XMLID_257_" class="st0" d="M1666.4,246.2c-6.6-10-9.9-21.3-9.9-33.8c0-15.2,6.1-29.7,18.2-43.4s29.2-20.5,51.4-20.5
			c9.5,0,20,2.2,31.4,6.7c11.5,4.5,22.5,6.7,33,6.7c2.7,0,6.9-0.1,12.4-0.3s9.5-0.3,12-0.3h2.3v15.8h-33.8
			c2.3,5.5,4.2,10.2,5.5,14.3c2.2,7.6,3.3,14.7,3.3,21.5c0,14.8-6.2,28.5-18.5,40.9s-28.9,18.7-49.7,18.7c-3.3,0-9.1-0.6-17.6-1.8
			c-3.8,0-8.8,3.2-15,9.6s-9.4,11.6-9.4,15.6c0,4.2,4.6,7.2,13.7,9.2c6,1.3,12.6,2,19.9,2c33.5,0,56.3,1.9,68.3,5.7
			c19.7,6.1,29.5,19.3,29.5,39.5c0,20.6-11.5,37-34.5,49.2s-46.2,18.4-69.6,18.4c-21.4,0-38.3-4.3-50.8-13s-18.8-17.7-18.8-27.2
			c0-4.7,1.7-9.3,5-13.8s9.8-11.2,19.6-20l12.8-11.5l2.3-2.3c-5.9-2.3-10.4-4.6-13.4-6.8c-5.2-4-7.8-8.7-7.8-13.9
			c0-4.8,2.2-10.1,6.7-15.9s14.1-15.2,28.8-28.2C1682.2,263.2,1673,256.3,1666.4,246.2z M1687.1,391.6c12.3,4.2,26.4,6.2,42.3,6.2
			c21.6,0,39.2-3.7,52.7-11.2s20.3-16.7,20.3-27.6c0-8.7-5.5-14.5-16.4-17.4c-6.8-1.7-19.6-2.7-38.6-2.9c-4.8-0.1-9.9-0.3-15.3-0.5
			s-10.2-0.4-14.7-0.7c-2.9-0.1-7.5-0.7-13.9-1.6s-11.2-1.7-14.3-2.3c-1.6,0-5.4,4.1-11.4,12.3c-6.2,8.3-9.3,16-9.3,23
			C1668.7,379.8,1674.8,387.4,1687.1,391.6z M1749.2,257.4c7.8-6.2,11.7-17.1,11.7-32.6c0-12.4-3.2-26.3-9.5-41.8
			s-16.8-23.2-31.5-23.2c-12.8,0-21.6,6.1-26.4,18.2c-2.5,6.4-3.7,14.3-3.7,23.6c0,15.9,3.8,30.1,11.5,42.8
			c7.7,12.6,17.6,18.9,29.9,18.9C1738.4,263.2,1744.3,261.3,1749.2,257.4z"/>
	</g>
</g>
</svg>
