<?xml version="1.0" encoding="utf-8"?>
<!-- Generator: Adobe Illustrator 19.0.0, SVG Export Plug-In . SVG Version: 6.00 Build 0)  -->
<svg version="1.1" id="Layer_1" xmlns="http://www.w3.org/2000/svg" xmlns:xlink="http://www.w3.org/1999/xlink" x="0px" y="0px"
	 viewBox="320 -60 1280 600" style="enable-background:new 320 -60 1280 600;" xml:space="preserve">
<style type="text/css">
	.st0{fill:#FFFFFF;}
</style>
<g id="Layer_1_1_">
	<g id="XMLID_95_">
		<path id="XMLID_227_" class="st0" d="M318.5,400.3c28.8-3.1,47.6-8.2,56.3-15.5c8.7-7.3,13.1-25.8,13.1-55.4V-22.1
			c0-28.8-4.2-47.3-12.7-55.5c-8.5-8.3-27.4-13.4-56.7-15.5v-14.7h212.9c71.7,0,132.4,11.8,182.1,35.5
			C803-29.8,847.7,46,847.7,155.3c0,39.3-8,76.8-24.1,112.3c-16.1,35.5-40.3,65.4-72.7,89.9c-20.6,15.4-41.9,27.1-64,35.1
			c-40.4,14.9-90,22.4-148.9,22.4H318.5V400.3z M477.6,379.4c6.3,4.1,19.3,6.2,39.2,6.2c61.7,0,112.5-12.2,152.4-36.7
			c61.2-37.6,91.8-101.8,91.8-192.6c0-81.1-25.2-142.1-75.6-183c-43.2-35-100.4-52.5-171.7-52.5c-17.7,0-29.8,1.9-36.1,5.8
			c-6.3,3.9-9.5,12.4-9.5,25.5V354C468.2,366.8,471.3,375.3,477.6,379.4z"/>
		<path id="XMLID_230_" class="st0" d="M961.2,244.8c23.7-15.4,70.8-36.4,141.6-62.9v-32.8c0-26.2-2.6-44.5-7.7-54.8
			c-8.7-17.2-26.9-25.8-54.4-25.8c-13.1,0-25.6,3.3-37.4,10c-11.8,6.9-17.7,16.5-17.7,28.5c0,3.1,0.6,8.3,1.9,15.6
			c1.3,7.3,1.9,12,1.9,14.1c0,14.4-4.8,24.4-14.3,30.1c-5.4,3.3-11.8,5-19.3,5c-11.6,0-20.4-3.8-26.6-11.4c-6.2-7.6-9.3-16-9.3-25.3
			c0-18,11.1-36.8,33.4-56.5c22.2-19.7,54.8-29.5,97.8-29.5c49.9,0,83.7,16.2,101.5,48.6c9.5,17.7,14.3,43.6,14.3,77.5v154.7
			c0,14.9,1,25.2,3.1,30.9c3.3,10,10.3,15,20.8,15c5.9,0,10.8-0.9,14.7-2.7c3.9-1.8,10.5-6.2,20.1-13.1v20.1
			c-8.2,10-17.1,18.3-26.6,24.7c-14.4,9.8-29.1,14.7-44,14.7c-17.5,0-30.2-5.7-38-17c-7.8-11.3-12.2-24.8-12.9-40.5
			c-19.5,17-36.3,29.6-50.1,37.8c-23.4,13.9-45.7,20.8-66.7,20.8c-22.1,0-41.3-7.8-57.5-23.3c-16.2-15.6-24.3-35.3-24.3-59.2
			C905.2,300.9,923.9,269.8,961.2,244.8z M1102.7,201.2c-29.6,9.8-54,20.6-73.3,32.4c-37,22.9-55.5,48.9-55.5,77.9
			c0,23.4,7.7,40.6,23.1,51.7c10,7.2,21.2,10.8,33.6,10.8c17,0,33.2-4.8,48.8-14.3c15.6-9.5,23.3-21.6,23.3-36.3V201.2L1102.7,201.2
			z"/>
		<path id="XMLID_233_" class="st0" d="M1237.7,60.4h162.8v10.8c-12.9,0.3-22.4,1.4-28.5,3.5c-11.8,3.4-17.7,10.1-17.7,20.1
			c0,3.7,0.6,7.4,1.9,11.2s3.6,9.5,6.9,17.2l89.3,193.1l73.5-194.6c0.8-2.1,2-6.8,3.7-14.2s2.5-12.4,2.5-15c0-6.8-2.3-11.8-6.9-15
			s-10.5-5-17.7-5.5l-12-0.8V60.4h106.1v10.8c-10.5,1.3-18.5,5-23.7,11.2c-5.3,6.1-9.8,14.6-13.7,25.5l-121.5,321.7
			c-21.1,55.5-41.3,95.8-60.6,120.7c-19.3,24.9-43.7,37.4-73.3,37.4c-14.4,0-27.9-3.6-40.5-10.8c-12.6-7.2-18.9-18.6-18.9-34.3
			c0-10.3,3.7-18.7,11.2-25.3s17-9.8,28.4-9.8c6.6,0,16.4,2.4,29.5,7.3c13.1,4.9,22.4,7.3,28,7.3c14.2,0,29.2-17.5,45-52.4
			c15.7-34.9,23.6-58,23.6-69.2c0-2.3-0.4-5.1-1.1-8.4s-1.6-6.2-2.6-8.8l-121.6-262.7c-8.7-19-16.4-31.6-23-37.6
			c-6.6-6-16.3-10-29.1-11.8V60.4z"/>
	</g>
</g>
</svg>
