<?xml version="1.0" encoding="utf-8"?>
<!-- Generator: Adobe Illustrator 19.0.0, SVG Export Plug-In . SVG Version: 6.00 Build 0)  -->
<svg version="1.1" id="Layer_1" xmlns="http://www.w3.org/2000/svg" xmlns:xlink="http://www.w3.org/1999/xlink" x="0px" y="0px"
	 viewBox="320 -60 1280 600" style="enable-background:new 320 -60 1280 600;" xml:space="preserve">
<style type="text/css">
	.st0{fill:#FFFFFF;}
</style>
<g id="Layer_3">
	<g id="XMLID_41_">
		<path id="XMLID_43_" class="st0" d="M192.9,244.6c2.5,6.7,5.5,12.1,8.9,16.1c5.9,7,13.3,10.5,22.2,10.5c4.8,0,8.9-1.5,12.4-4.5
			s5.2-7.3,5.2-12.7c0-4.9-1.8-9.1-5.3-12.7c-2.3-2.3-7.1-5.7-14.5-10.3l-12.8-8c-3.9-2.4-6.9-4.9-9.2-7.4c-4.2-4.7-6.4-10-6.4-15.7
			c0-7.6,2.5-13.9,7.5-18.9s11.7-7.5,20-7.5c3.4,0,7.5,0.8,12.3,2.5s7.6,2.5,8.2,2.5c1.9,0,3.1-0.4,3.8-1.3c0.7-0.9,1.3-2.1,1.6-3.7
			h3.1l3.3,31.9h-3.6c-2.4-9.6-6.4-16.3-11.8-20.1c-5.4-3.8-10.7-5.7-16-5.7c-4.1,0-7.7,1.2-10.7,3.6c-3.1,2.4-4.6,5.8-4.6,10.1
			c0,3.9,1.2,7.2,3.5,9.9c2.3,2.8,6,5.7,10.9,8.7l13.2,8.1c8.2,5.1,14.1,9.7,17.4,14s5,9.4,5,15.2c0,7.9-3,14.4-8.9,19.7
			c-5.9,5.3-13.5,7.9-22.7,7.9c-4.6,0-9.5-0.9-14.5-2.6s-7.9-2.6-8.7-2.6c-1.8,0-2.9,0.5-3.6,1.6c-0.6,1.1-1,2.2-1.2,3.4h-3.3
			l-4.5-31.9h3.8V244.6z"/>
		<path id="XMLID_45_" class="st0" d="M304.8,207.3v5.3h-14.9l-0.1,42.2c0,3.7,0.3,6.5,1,8.4c1.2,3.4,3.5,5.1,6.9,5.1
			c1.8,0,3.3-0.4,4.6-1.2c1.3-0.8,2.8-2.1,4.4-4l1.9,1.6l-1.6,2.2c-2.5,3.4-5.2,5.8-8.1,7.3c-2.8,1.4-5.6,2.1-8.2,2.1
			c-5.8,0-9.7-2.6-11.7-7.7c-1.1-2.8-1.7-6.6-1.7-11.6v-44.4h-8c-0.2-0.1-0.4-0.3-0.5-0.4c-0.1-0.1-0.2-0.3-0.2-0.6
			c0-0.5,0.1-0.9,0.3-1.1c0.2-0.3,0.9-0.9,2.1-1.9c3.4-2.8,5.8-5,7.3-6.8c1.5-1.7,5-6.3,10.5-13.7c0.6,0,1,0,1.1,0.1
			s0.2,0.5,0.2,1.1v18H304.8z"/>
		<path id="XMLID_47_" class="st0" d="M360.8,213.2c5.2,4.8,7.8,11.5,7.8,20.3h-46.5c0.5,11.3,3.1,19.5,7.7,24.7
			c4.6,5.2,10.1,7.7,16.5,7.7c5.1,0,9.4-1.3,13-4c3.5-2.7,6.8-6.5,9.7-11.4l2.6,0.9c-2,6.2-5.7,12-11.2,17.2
			c-5.5,5.3-12.2,7.9-20.2,7.9c-9.2,0-16.3-3.5-21.3-10.4s-7.5-14.9-7.5-24c0-9.8,2.9-18.3,8.7-25.4c5.8-7.1,13.4-10.7,22.7-10.7
			C349.6,206.1,355.6,208.5,360.8,213.2z M325.7,218.8c-1.6,2.6-2.7,6-3.4,10h30.9c-0.5-4.9-1.5-8.5-2.8-10.9
			c-2.4-4.3-6.4-6.4-12-6.4C332.9,211.4,328.7,213.9,325.7,218.8z"/>
		<path id="XMLID_50_" class="st0" d="M375.6,272.4c4.5-0.4,7.5-1.2,8.9-2.4c1.5-1.2,2.2-3.7,2.2-7.7v-33c0-4.8-0.5-8.3-1.4-10.4
			c-0.9-2.1-2.6-3.1-4.9-3.1c-0.5,0-1.1,0.1-1.9,0.2c-0.8,0.1-1.6,0.3-2.5,0.5v-2.4c2.8-1,5.6-2,8.5-3c2.9-1,4.9-1.8,6.1-2.2
			c2.4-0.9,4.9-2,7.5-3.1c0.3,0,0.5,0.1,0.6,0.4c0.1,0.2,0.1,0.8,0.1,1.5v12c3.1-4.3,6.2-7.7,9.1-10.2c2.9-2.4,5.9-3.7,9.1-3.7
			c2.5,0,4.5,0.7,6.1,2.2c1.6,1.5,2.4,3.4,2.4,5.6c0,2-0.6,3.7-1.8,5.1c-1.2,1.4-2.7,2.1-4.5,2.1c-1.9,0-3.7-0.9-5.6-2.6
			c-1.9-1.7-3.4-2.6-4.4-2.6c-1.7,0-3.8,1.4-6.3,4.1c-2.5,2.8-3.7,5.6-3.7,8.5v33c0,4.2,1,7.1,2.9,8.8c2,1.6,5.2,2.4,9.7,2.3v2.4
			h-36.2V272.4z"/>
		<path id="XMLID_52_" class="st0" d="M477.3,213.2c5.2,4.8,7.8,11.5,7.8,20.3h-46.5c0.5,11.3,3.1,19.5,7.7,24.7
			c4.6,5.2,10.1,7.7,16.5,7.7c5.1,0,9.4-1.3,13-4c3.5-2.7,6.8-6.5,9.7-11.4l2.6,0.9c-2,6.2-5.7,12-11.2,17.2
			c-5.5,5.3-12.2,7.9-20.2,7.9c-9.2,0-16.3-3.5-21.3-10.4s-7.5-14.9-7.5-24c0-9.8,2.9-18.3,8.7-25.4c5.8-7.1,13.4-10.7,22.7-10.7
			C466.1,206.1,472.2,208.5,477.3,213.2z M442.3,218.8c-1.6,2.6-2.7,6-3.4,10h30.9c-0.5-4.9-1.5-8.5-2.8-10.9
			c-2.4-4.3-6.4-6.4-12-6.4C449.4,211.4,445.2,213.9,442.3,218.8z"/>
		<path id="XMLID_173_" class="st0" d="M504.5,216.2c6.2-6.7,14.1-10.1,23.8-10.1s17.7,3.2,24,9.5s9.5,14.8,9.5,25.3
			c0,9.7-3.1,18.2-9.2,25.3c-6.1,7.1-14.1,10.8-23.9,10.8c-9.4,0-17.3-3.4-23.8-10.3s-9.7-15.5-9.7-25.9
			C495.3,231.1,498.4,222.9,504.5,216.2z M516.2,214.3c-4.9,4.4-7.3,12.1-7.3,23c0,8.7,2,16.8,5.9,24.3c3.9,7.5,9.4,11.3,16.4,11.3
			c5.5,0,9.7-2.5,12.7-7.5s4.4-11.6,4.4-19.8c0-8.4-1.9-16.4-5.6-23.9c-3.8-7.5-9.2-11.2-16.4-11.2
			C522.4,210.5,519.1,211.8,516.2,214.3z"/>
		<path id="XMLID_176_" class="st0" d="M606.4,272c5.7-0.5,9.3-1.7,10.7-3.4c1.4-1.7,2.1-5.7,2.1-11.8v-65c0-5.2-0.8-8.7-2.4-10.3
			c-1.6-1.7-5.1-2.7-10.4-3.1v-2.8H646c12.7,0,22.4,2.5,29.2,7.4c6.7,4.9,10.1,11.4,10.1,19.5c0,10.2-3.7,17.6-11.2,22.2
			s-16.8,6.9-28.1,6.9c-1.6,0-3.7,0-6.2-0.1s-4.4-0.1-5.6-0.1v27.2c0,5.6,0.9,9.2,2.6,10.6c1.7,1.5,5.6,2.4,11.6,2.8v2.8h-42V272
			L606.4,272z M657,183.9c-4.2-1.9-9.6-2.8-16.1-2.8c-3.1,0-5,0.3-5.7,0.9c-0.7,0.6-1.1,2-1.1,4.1v39.1c2.7,0.2,4.4,0.4,5.3,0.4
			c0.8,0,1.6,0.1,2.4,0.1c6.9,0,12.3-1,16.3-2.9c7.2-3.6,10.8-10.2,10.8-20C668.9,193.6,664.9,187.3,657,183.9z"/>
		<path id="XMLID_179_" class="st0" d="M690.3,272.7c5.2-0.5,8.5-1.4,9.9-2.7c1.4-1.3,2.1-4.8,2.1-10.5v-34.9c0-3.2-0.2-5.4-0.7-6.6
			c-0.7-2-2.3-3-4.6-3c-0.5,0-1.1,0-1.6,0.1s-2,0.5-4.4,1.2V214l3.1-1c8.5-2.8,14.5-4.9,17.9-6.3c1.4-0.6,2.2-0.9,2.6-0.9
			c0.1,0.3,0.1,0.7,0.1,1.1v52.6c0,5.6,0.7,9.1,2,10.5c1.3,1.4,4.4,2.3,9.1,2.7v2.1h-35.6v-2.1H690.3z M702,174.8
			c1.5-1.5,3.3-2.3,5.4-2.3c2.1,0,3.9,0.7,5.4,2.2s2.2,3.3,2.2,5.4c0,2.1-0.7,3.9-2.2,5.4s-3.3,2.2-5.4,2.2c-2.1,0-4-0.7-5.4-2.2
			c-1.5-1.5-2.2-3.3-2.2-5.4S700.5,176.3,702,174.8z"/>
		<path id="XMLID_182_" class="st0" d="M782.1,210.4c4.4,3.1,6.6,6.6,6.6,10.3c0,1.6-0.6,3.1-1.7,4.5s-2.9,2.1-5.2,2.1
			c-1.7,0-3.2-0.6-4.5-1.8c-1.3-1.2-2.2-2.9-2.8-5.1l-0.9-3.5c-0.6-2.6-1.7-4.4-3.3-5.5c-1.6-1-3.7-1.5-6.4-1.5
			c-5.6,0-10.3,2.4-14.1,7.3c-3.8,4.9-5.7,11.3-5.7,19.4c0,7.4,2.1,14,6.3,19.9c4.2,5.9,9.9,8.8,17.1,8.8c5.1,0,9.6-1.7,13.5-5
			c2.2-1.9,4.8-4.9,7.6-9.1l2.1,1.2c-2.8,5.9-5.7,10.5-8.8,13.9c-5.9,6.6-12.7,9.8-20.5,9.8c-7.6,0-14.4-3-20.2-9
			s-8.8-14.2-8.8-24.5c0-10.1,3.2-18.8,9.6-26.1c6.4-7.3,14.5-10.9,24.2-10.9C772.5,205.7,777.7,207.3,782.1,210.4z"/>
		<path id="XMLID_184_" class="st0" d="M833.8,207.3v5.3h-14.9l-0.1,42.2c0,3.7,0.3,6.5,1,8.4c1.2,3.4,3.5,5.1,6.9,5.1
			c1.8,0,3.3-0.4,4.6-1.2c1.3-0.8,2.8-2.1,4.4-4l1.9,1.6l-1.6,2.2c-2.5,3.4-5.2,5.8-8.1,7.3c-2.8,1.4-5.6,2.1-8.2,2.1
			c-5.8,0-9.7-2.6-11.7-7.7c-1.1-2.8-1.7-6.6-1.7-11.6v-44.4h-8c-0.2-0.1-0.4-0.3-0.5-0.4c-0.1-0.1-0.2-0.3-0.2-0.6
			c0-0.5,0.1-0.9,0.3-1.1c0.2-0.3,0.9-0.9,2.1-1.9c3.4-2.8,5.8-5,7.3-6.8c1.5-1.7,5-6.3,10.5-13.7c0.6,0,1,0,1.1,0.1
			c0.1,0.1,0.2,0.5,0.2,1.1v18H833.8z"/>
		<path id="XMLID_186_" class="st0" d="M860.5,207v46.9c0,3.3,0.5,6,1.4,8c1.8,3.7,5.1,5.6,10,5.6c3.3,0,6.6-1.1,9.7-3.3
			c1.8-1.2,3.6-2.9,5.5-5.1V219c0-3.8-0.7-6.2-2.2-7.4s-4.4-1.9-8.8-2.1V207h23.7v51.6c0,3.3,0.6,5.6,1.8,6.8
			c1.2,1.2,3.7,1.8,7.6,1.6v2.1c-2.7,0.7-4.7,1.3-5.9,1.6c-1.3,0.4-3.4,1-6.4,2c-1.3,0.4-4.1,1.5-8.3,3.1c-0.2,0-0.4-0.1-0.4-0.3
			c0-0.2-0.1-0.5-0.1-0.8V263c-3.3,4-6.3,6.9-9.1,8.8c-4.2,2.9-8.5,4.4-13.2,4.4c-4.2,0-8.3-1.5-12-4.5c-3.8-3-5.7-8-5.7-15v-38.1
			c0-3.9-0.8-6.5-2.5-7.8c-1.1-0.8-3.4-1.4-6.9-1.7V207H860.5z"/>
		<path id="XMLID_188_" class="st0" d="M913,272.4c4.5-0.4,7.5-1.2,8.9-2.4c1.5-1.2,2.2-3.7,2.2-7.7v-33c0-4.8-0.5-8.3-1.4-10.4
			s-2.6-3.1-4.9-3.1c-0.5,0-1.1,0.1-1.9,0.2c-0.8,0.1-1.6,0.3-2.5,0.5v-2.4c2.8-1,5.6-2,8.5-3s4.9-1.8,6.1-2.2
			c2.4-0.9,4.9-2,7.5-3.1c0.3,0,0.5,0.1,0.6,0.4c0.1,0.2,0.1,0.8,0.1,1.5v12c3.1-4.3,6.2-7.7,9.1-10.2c2.9-2.4,5.9-3.7,9.1-3.7
			c2.5,0,4.5,0.7,6.1,2.2s2.4,3.4,2.4,5.6c0,2-0.6,3.7-1.8,5.1s-2.7,2.1-4.5,2.1c-1.9,0-3.7-0.9-5.6-2.6c-1.9-1.7-3.4-2.6-4.4-2.6
			c-1.7,0-3.8,1.4-6.3,4.1c-2.5,2.8-3.7,5.6-3.7,8.5v33c0,4.2,1,7.1,2.9,8.8c2,1.6,5.2,2.4,9.7,2.3v2.4H913V272.4z"/>
		<path id="XMLID_190_" class="st0" d="M1014.7,213.2c5.2,4.8,7.8,11.5,7.8,20.3H976c0.5,11.3,3.1,19.5,7.7,24.7
			c4.6,5.2,10.1,7.7,16.5,7.7c5.1,0,9.4-1.3,13-4c3.5-2.7,6.8-6.5,9.7-11.4l2.6,0.9c-2,6.2-5.7,12-11.2,17.2
			c-5.5,5.3-12.2,7.9-20.2,7.9c-9.2,0-16.3-3.5-21.3-10.4s-7.5-14.9-7.5-24c0-9.8,2.9-18.3,8.7-25.4s13.4-10.7,22.7-10.7
			C1003.5,206.1,1009.5,208.5,1014.7,213.2z M979.6,218.8c-1.6,2.6-2.7,6-3.4,10h30.9c-0.5-4.9-1.5-8.5-2.8-10.9
			c-2.4-4.3-6.4-6.4-12-6.4C986.8,211.4,982.6,213.9,979.6,218.8z"/>
		<path id="XMLID_193_" class="st0" d="M1036.7,251.7h2.4c1.1,5.6,2.6,9.8,4.5,12.8c3.4,5.5,8.4,8.2,15,8.2c3.7,0,6.5-1,8.7-3
			c2.1-2,3.2-4.7,3.2-7.9c0-2.1-0.6-4-1.8-5.9s-3.4-3.8-6.4-5.6l-8.2-4.7c-6-3.2-10.4-6.5-13.3-9.7c-2.8-3.3-4.3-7.1-4.3-11.6
			c0-5.5,2-10,5.9-13.5c3.9-3.5,8.8-5.3,14.7-5.3c2.6,0,5.4,0.5,8.5,1.5s4.8,1.5,5.2,1.5c0.9,0,1.5-0.1,1.9-0.4
			c0.4-0.2,0.7-0.6,1-1.2h1.8l0.5,20.4h-2.3c-1-4.7-2.3-8.4-4-11.1c-3-4.9-7.4-7.3-13.1-7.3c-3.4,0-6.1,1.1-8.1,3.1
			c-2,2.1-2.9,4.6-2.9,7.4c0,4.5,3.4,8.5,10.1,12l9.7,5.2c10.4,5.7,15.6,12.3,15.6,19.8c0,5.8-2.2,10.5-6.5,14.1s-10,5.5-16.9,5.5
			c-2.9,0-6.2-0.5-9.9-1.5s-5.9-1.5-6.6-1.5c-0.6,0-1.1,0.2-1.5,0.6s-0.8,0.9-1,1.5h-1.9L1036.7,251.7L1036.7,251.7z"/>
		<path id="XMLID_195_" class="st0" d="M1159.5,175.5v2.8c-3,0.1-5.1,0.4-6.4,0.8c-2.2,0.8-3.4,2.3-3.4,4.5c0,1,0.1,1.9,0.4,2.9
			c0.3,0.9,0.7,2.1,1.2,3.6l21.7,56.4l15.9-42l-7-18.4c-1.3-3.3-3.3-5.5-5.9-6.7c-1.6-0.7-3.9-1.1-7.1-1.1v-2.8h40.2v2.8
			c-3.8,0-6.3,0.3-7.8,0.8c-2.2,0.8-3.4,2.5-3.4,5.1c0,0.9,0.1,1.6,0.3,2.3c0.2,0.7,0.7,2,1.5,4.1l21.7,56.2l18.8-50.9
			c1.1-2.9,1.8-5.4,2.2-7.7c0.2-1.3,0.4-2.3,0.4-3.1c0-2.8-1.3-4.7-4-5.8c-1.5-0.6-3.7-1-6.6-1.1v-2.8h29.8v2.8
			c-2.7,0.4-4.7,1-6.2,1.8c-2.5,1.4-4.4,3.9-5.7,7.3l-15.7,44.7l-6.1,17.3l-9.5,27.1h-2.3l-6.6-17.2l-17.4-46.2l-23,63.4h-2.3
			l-11.2-31.1l-12.7-35.2c-5.2-14.5-8.9-23.4-10.9-26.7c-2.1-3.3-5.3-5.1-9.7-5.3v-2.8h36.8V175.5z"/>
		<path id="XMLID_197_" class="st0" d="M1264.8,216.2c6.2-6.7,14.1-10.1,23.8-10.1s17.7,3.2,24,9.5s9.5,14.8,9.5,25.3
			c0,9.7-3.1,18.2-9.2,25.3c-6.1,7.1-14.1,10.8-23.9,10.8c-9.4,0-17.3-3.4-23.8-10.3s-9.7-15.5-9.7-25.9
			C1255.5,231.1,1258.6,222.9,1264.8,216.2z M1276.5,214.3c-4.9,4.4-7.3,12.1-7.3,23c0,8.7,2,16.8,5.9,24.3
			c3.9,7.5,9.4,11.3,16.4,11.3c5.5,0,9.7-2.5,12.7-7.5s4.4-11.6,4.4-19.8c0-8.4-1.9-16.4-5.6-23.9c-3.8-7.5-9.2-11.2-16.4-11.2
			C1282.7,210.5,1279.3,211.8,1276.5,214.3z"/>
		<path id="XMLID_200_" class="st0" d="M1327.4,272.4c4.5-0.4,7.5-1.2,8.9-2.4c1.5-1.2,2.2-3.7,2.2-7.7v-33c0-4.8-0.5-8.3-1.4-10.4
			c-0.9-2.1-2.6-3.1-4.9-3.1c-0.5,0-1.1,0.1-1.9,0.2s-1.6,0.3-2.5,0.5v-2.4c2.8-1,5.6-2,8.5-3c2.9-1,4.9-1.8,6.1-2.2
			c2.4-0.9,4.9-2,7.5-3.1c0.3,0,0.5,0.1,0.6,0.4c0.1,0.2,0.1,0.8,0.1,1.5v12c3.1-4.3,6.2-7.7,9.1-10.2c2.9-2.4,5.9-3.7,9.1-3.7
			c2.5,0,4.5,0.7,6.1,2.2s2.4,3.4,2.4,5.6c0,2-0.6,3.7-1.8,5.1c-1.2,1.4-2.7,2.1-4.5,2.1c-1.9,0-3.7-0.9-5.6-2.6s-3.4-2.6-4.4-2.6
			c-1.7,0-3.8,1.4-6.3,4.1c-2.5,2.8-3.7,5.6-3.7,8.5v33c0,4.2,1,7.1,2.9,8.8c2,1.6,5.2,2.4,9.7,2.3v2.4h-36.1L1327.4,272.4
			L1327.4,272.4z"/>
		<path id="XMLID_202_" class="st0" d="M1377,272.9c4.7-0.3,7.8-1.1,9.3-2.3c1.5-1.2,2.2-3.9,2.2-7.9v-73.5c0-3.5-0.6-5.7-1.8-6.6
			c-1.2-0.9-2.9-1.4-5.1-1.4c-0.9,0-1.7,0-2.4,0.1c-0.7,0-1.4,0.1-2.3,0.2v-2.1l6.6-1.8c5-1.3,9.3-2.6,12.8-3.7
			c2.1-0.7,3.4-1.1,3.7-1.1c0.3,0,0.5,0.1,0.5,0.2c0.1,0.1,0.1,0.4,0.1,0.8v61.6l20.3-17.9c1.5-1.3,2.5-2.4,3-3.1
			c0.5-0.8,0.8-1.5,0.8-2.1c0-1.1-0.5-1.8-1.6-2.1s-3.1-0.5-5.9-0.7v-2.1h30.5v2.1c-5.5,0.3-9.8,1.4-13.2,3.3
			c-3.3,1.8-9.7,7.1-19.1,15.8l-4.4,3.9l13.4,17.7c7,8.9,12.2,14.9,15.7,17.8s7.3,4.6,11.3,4.9v1.9H1419v-1.9l2.6-0.2
			c0.8,0,1.6-0.2,2.3-0.5c0.7-0.3,1-0.8,1-1.5c0-0.6-0.1-1.1-0.4-1.5c-0.2-0.5-0.6-1-1-1.6l-22.7-29.9V265c0,3.4,1.2,5.7,3.7,6.8
			c1.5,0.7,4,1.1,7.5,1.1v1.9h-35V272.9z"/>
		<path id="XMLID_204_" class="st0" d="M1459.5,251.7h2.4c1.1,5.6,2.6,9.8,4.5,12.8c3.4,5.5,8.4,8.2,15,8.2c3.7,0,6.5-1,8.7-3
			c2.1-2,3.2-4.7,3.2-7.9c0-2.1-0.6-4-1.8-5.9c-1.2-1.9-3.4-3.8-6.4-5.6l-8.2-4.7c-6-3.2-10.4-6.5-13.3-9.7
			c-2.8-3.3-4.3-7.1-4.3-11.6c0-5.5,2-10,5.9-13.5s8.8-5.3,14.7-5.3c2.6,0,5.4,0.5,8.5,1.5s4.8,1.5,5.2,1.5c0.9,0,1.5-0.1,1.9-0.4
			c0.4-0.2,0.7-0.6,1-1.2h1.8l0.5,20.4h-2.3c-1-4.7-2.3-8.4-4-11.1c-3-4.9-7.4-7.3-13.1-7.3c-3.4,0-6.1,1.1-8.1,3.1
			c-2,2.1-2.9,4.6-2.9,7.4c0,4.5,3.4,8.5,10.1,12l9.7,5.2c10.4,5.7,15.6,12.3,15.6,19.8c0,5.8-2.2,10.5-6.5,14.1s-10,5.5-16.9,5.5
			c-2.9,0-6.2-0.5-9.9-1.5s-5.9-1.5-6.6-1.5c-0.6,0-1.1,0.2-1.5,0.6s-0.8,0.9-1,1.5h-1.9L1459.5,251.7L1459.5,251.7z"/>
		<path id="XMLID_206_" class="st0" d="M1511.4,272.7c4-0.5,6.6-1.5,7.9-3c1.2-1.4,1.9-4.8,1.9-10.2v-70.3c0-2.7-0.4-4.7-1.1-6
			s-2.4-1.9-5.2-1.9c-0.5,0-1.1,0-1.6,0.1s-1.1,0.2-1.7,0.3V179c2.1-0.6,4.8-1.4,7.9-2.3c3.1-0.9,5.3-1.5,6.6-1.9l7-2.2l0.1,0.5v45
			c3.1-3.5,5.8-6.1,8.2-7.8c4.3-2.9,8.9-4.4,13.9-4.4c7.9,0,13.3,3.3,16.2,10c1.6,3.5,2.3,8.1,2.3,13.8v29.9c0,5.2,0.6,8.5,1.8,10.1
			c1.2,1.6,3.6,2.6,7.4,3.1v2.1h-31.7v-2.1c4.2-0.6,7-1.6,8.2-3s1.8-4.8,1.8-10.2v-29.7c0-4.7-0.8-8.6-2.4-11.5s-4.6-4.4-9-4.4
			c-3.8,0-7.5,1.4-11.1,4.1s-5.3,4.5-5.3,5.3v36.1c0,5.5,0.6,8.9,1.9,10.3s4,2.3,8.1,2.9v2.1h-32.3v-2.1H1511.4z"/>
		<path id="XMLID_208_" class="st0" d="M1598.1,216.2c6.2-6.7,14.1-10.1,23.8-10.1c9.7,0,17.7,3.2,24,9.5s9.5,14.8,9.5,25.3
			c0,9.7-3.1,18.2-9.2,25.3s-14.1,10.8-23.9,10.8c-9.4,0-17.3-3.4-23.8-10.3s-9.7-15.5-9.7-25.9
			C1588.9,231.1,1591.9,222.9,1598.1,216.2z M1609.8,214.3c-4.9,4.4-7.3,12.1-7.3,23c0,8.7,2,16.8,5.9,24.3s9.4,11.3,16.4,11.3
			c5.5,0,9.7-2.5,12.7-7.5s4.4-11.6,4.4-19.8c0-8.4-1.9-16.4-5.6-23.9c-3.8-7.5-9.2-11.2-16.4-11.2
			C1616,210.5,1612.7,211.8,1609.8,214.3z"/>
		<path id="XMLID_211_" class="st0" d="M1660.8,305c4.6-0.3,7.5-1.3,8.7-2.9c1.2-1.7,1.9-4.3,1.9-7.8V224c0-3.7-0.5-6.1-1.4-7.1
			s-2.6-1.6-5.1-1.6c-0.5,0-1,0-1.5,0.1c-0.5,0-1.1,0.1-2,0.3v-2.4l7-2.3c0.2,0,5.2-1.7,14.7-5.1c0.2,0,0.4,0.1,0.5,0.3
			c0.1,0.2,0.2,0.5,0.2,0.8v9.9c3.2-3.2,6.1-5.6,8.5-7.2c4.4-2.7,8.9-4.1,13.5-4.1c6.7,0,12.5,2.9,17.4,8.6s7.3,13.6,7.3,23.5
			c0,9.8-2.9,18.6-8.8,26.6c-5.8,8-13.2,11.9-22,11.9c-2.7,0-5.1-0.3-7.1-1c-3.1-1-6-2.9-8.6-5.6v24c0,4.9,0.8,8,2.4,9.1
			s5.1,1.9,10.5,2.3v2.6h-36.2L1660.8,305L1660.8,305z M1689.7,268.7c2.5,1.6,5.5,2.5,8.9,2.5c5.3,0,9.8-2.6,13.5-7.9
			c3.7-5.2,5.6-12.5,5.6-21.9c0-9-1.9-15.7-5.8-20.1s-8.4-6.7-13.5-6.7c-3.6,0-6.9,1.1-9.9,3.3c-3,2.2-4.5,4.4-4.5,6.5v36.8
			C1685.3,264.6,1687.2,267,1689.7,268.7z"/>
	</g>
</g>
</svg>
